# xmcd
#
# Track frame offsets: 
#        150
#        15684
#        29993
#        42835
#        55582
#        66632
#        77786
#        87453
#        99303
#        112096
#        124195
#        136561
#        149012
#        161934
#        174294
#        185903
#        198434
#        209964
#        220195
#        231852
#
# Disc length: 3256 seconds
#
# Revision: 0
# Processed by: cddbd v1.5.2PL0 Copyright (c) Steve Scherf et al.
# Submitted via: ExactAudioCopyFreeDBPlugin 1.0
#
DISCID=390cb614
DTITLE=Various Artist - De Gouden Eeuw van de Countrymuziek
DYEAR=2012
DGENRE=Country
TTITLE0=Jimmie Rodgers - Blue Yodel
TTITLE1=The Carter Family - Wildwood Flower
TTITLE2=Roy Acuff - Night Train To Memphis
TTITLE3=Bob Wills and His Texas Playboys - Stay A Little Longer
TTITLE4=Light Crust Doughboys - Blue Guitars
TTITLE5=Gene Autry - Red River Valley
TTITLE6=Bill Monroe - Blue Moon Of Kentucky
TTITLE7=Ernest Tubb - Walking The Floor Over You
TTITLE8=Hank Snow - I'm Moving On
TTITLE9=Merle Travis - Nine Pound Hammer
TTITLE10=Eddy Arnold - I'll Hold You In My Heart
TTITLE11=Hank Williams - Move It On Over
TTITLE12=Jim Reeves - Four Walls
TTITLE13=Hank Thompson - Wild Side Of Life
TTITLE14=Ray Price - Crazy Arms
TTITLE15=The Stanley Brothers - Little Maggie
TTITLE16=Webb Pierce - Slowly
TTITLE17=George Jones - Why Baby Why
TTITLE18=Patsy Cline - Walkin' After Midnight
TTITLE19=Johnny Cash - I Walk The Line
EXTD=
EXTT0=
EXTT1=
EXTT2=
EXTT3=
EXTT4=
EXTT5=
EXTT6=
EXTT7=
EXTT8=
EXTT9=
EXTT10=
EXTT11=
EXTT12=
EXTT13=
EXTT14=
EXTT15=
EXTT16=
EXTT17=
EXTT18=
EXTT19=
PLAYORDER=
